<svg xmlns="http://www.w3.org/2000/svg" width="70" height="70" viewBox="0 0 70 70">
  <defs>
    <style>
      .cls-1 {
        fill: #22222b;
      }

      .cls-2 {
        fill: #fff;
        fill-rule: evenodd;
      }
    </style>
  </defs>
  <circle id="BG" class="cls-1" cx="35" cy="35" r="35"/>
  <path id="Forma_1" data-name="Forma 1" class="cls-2" d="M46.818,35.711a0.565,0.565,0,0,0-.591.605v7.868a0.565,0.565,0,0,1-.591.6H24.364a0.565,0.565,0,0,1-.591-0.6V36.316a0.591,0.591,0,1,0-1.182,0v7.868A1.763,1.763,0,0,0,24.364,46H45.636a1.763,1.763,0,0,0,1.773-1.816V36.316A0.565,0.565,0,0,0,46.818,35.711Zm-0.591-8.474H23.773A1.763,1.763,0,0,0,22,29.052v3.874a1.808,1.808,0,0,0,1.359,1.755L32.636,36.8v1.937a0.565,0.565,0,0,0,.591.605h3.545a0.565,0.565,0,0,0,.591-0.605V36.8l9.277-2.118A1.808,1.808,0,0,0,48,32.926V29.052A1.763,1.763,0,0,0,46.227,27.236Zm-10.045,10.9H33.818V35.711h2.364v2.421Zm10.636-5.205a0.586,0.586,0,0,1-.473.605L37.364,35.59V35.105a0.565,0.565,0,0,0-.591-0.605H33.227a0.565,0.565,0,0,0-.591.605V35.59l-8.982-2.058a0.587,0.587,0,0,1-.473-0.606V29.052a0.565,0.565,0,0,1,.591-0.605H46.227a0.565,0.565,0,0,1,.591.605v3.874ZM37.954,23H32.045a1.763,1.763,0,0,0-1.773,1.816v0.605a0.591,0.591,0,1,0,1.182,0V24.816a0.565,0.565,0,0,1,.591-0.605h5.909a0.565,0.565,0,0,1,.591.605v0.605a0.591,0.591,0,1,0,1.182,0V24.816A1.763,1.763,0,0,0,37.954,23Z"/>
</svg>
