<svg xmlns="http://www.w3.org/2000/svg" width="70" height="70" viewBox="0 0 70 70">
  <defs>
    <style>
      .cls-1 {
        fill: #22222b;
      }

      .cls-2 {
        fill: #fff;
        fill-rule: evenodd;
      }
    </style>
  </defs>
  <circle id="BG" class="cls-1" cx="35" cy="35" r="35"/>
  <path class="cls-2" d="M42.221,24.926a2.775,2.775,0,0,0-.664.083l0.172,0.7a2.044,2.044,0,0,1,2.55,1.991c0,3.023-3.451,5.25-4.89,5.67l0.2,0.69C41.419,33.524,45,31.035,45,27.7A2.778,2.778,0,0,0,42.221,24.926ZM26.72,27.7a2.043,2.043,0,0,1,2.55-1.99l0.173-.7A2.776,2.776,0,0,0,26,27.7c0,3.339,3.581,5.827,5.408,6.36l0.2-.69C30.171,32.947,26.72,30.72,26.72,27.7Zm10.029,9.68h-2.5a0.36,0.36,0,0,0-.36.36V39.1a0.36,0.36,0,0,0,.36.359,0.35,0.35,0,0,0,.076-0.008,5.806,5.806,0,0,1,2.347,0,0.365,0.365,0,0,0,.3-0.072A0.359,0.359,0,0,0,37.11,39.1V37.737A0.36,0.36,0,0,0,36.749,37.377Zm-0.36,1.3a6.644,6.644,0,0,0-1.779,0V38.1h1.779v0.577Zm3.974,6.281H30.637a0.36,0.36,0,0,0-.36.359V46.64a0.36,0.36,0,0,0,.36.359h9.726a0.36,0.36,0,0,0,.36-0.359V45.313A0.36,0.36,0,0,0,40.363,44.953ZM40,46.281H31V45.672H40v0.608Zm-0.263-6.39H31.26a0.36,0.36,0,0,0-.36.359v5.063a0.36,0.36,0,0,0,.36.36h8.479a0.36,0.36,0,0,0,.36-0.36V40.25A0.36,0.36,0,0,0,39.739,39.89Zm-0.36,5.063H31.621V40.609h7.758v4.344ZM38.3,41.327H32.7a0.36,0.36,0,0,0-.36.36v2.188a0.36,0.36,0,0,0,.36.36h5.6a0.36,0.36,0,0,0,.36-0.36V41.687A0.36,0.36,0,0,0,38.3,41.327Zm-0.36,2.188H33.062V42.046h4.876v1.469ZM41.85,24.18A0.6,0.6,0,0,0,41.418,24H29.582a0.61,0.61,0,0,0-.609.612c0,0.245.012,0.485,0.023,0.76q0.014,0.332.036,0.659a19.212,19.212,0,0,0,1.72,7.033c0.139,0.285.289,0.565,0.446,0.83A6.9,6.9,0,0,0,33.658,36.5a0.36,0.36,0,0,0,.308.021c0.084,0,.178,0,0.284,0h2.789a0.363,0.363,0,0,0,.3-0.023A6.9,6.9,0,0,0,39.8,33.894c0.156-.265.305-0.544,0.445-0.83a19.2,19.2,0,0,0,1.72-7.033c0.014-.218.027-0.437,0.036-0.66,0.011-.252.021-0.5,0.023-0.757A0.6,0.6,0,0,0,41.85,24.18Zm-0.568,1.162c-0.009.215-.021,0.428-0.035,0.64A18.478,18.478,0,0,1,39.6,32.75c-0.131.269-.272,0.531-0.418,0.78a6.469,6.469,0,0,1-2.072,2.276H33.892a6.463,6.463,0,0,1-2.072-2.277c-0.147-.249-0.288-0.511-0.419-0.779a18.494,18.494,0,0,1-1.649-6.767c-0.014-.212-0.026-0.425-0.036-0.672-0.008-.2-0.016-0.393-0.02-0.591H41.3C41.3,24.928,41.291,25.135,41.282,25.342Zm-1.454.213c-0.006.113-.012,0.219-0.019,0.325a16.389,16.389,0,0,1-1.431,5.909c-0.108.221-.226,0.44-0.349,0.65a5.285,5.285,0,0,1-1.383,1.624l0.418,0.586a6.009,6.009,0,0,0,1.586-1.845c0.133-.227.26-0.462,0.376-0.7a17.129,17.129,0,0,0,1.5-6.177c0.007-.11.014-0.218,0.02-0.335Zm-3.079,10.25H34.234c-0.606,0-.666,1.173-0.666,1.185s0.071,1.106.683,1.106h2.516c0.6,0,.666-1.095.666-1.106S37.372,35.806,36.749,35.806Zm-0.131,1.571H34.382a1.563,1.563,0,0,1-.094-0.387,2.005,2.005,0,0,1,.1-0.466h2.214a1.988,1.988,0,0,1,.1.466A1.545,1.545,0,0,1,36.618,37.378Zm0.207,1.372a6.531,6.531,0,0,0-2.651,0c-1.194.258-1.906,0.818-1.906,1.5a0.36,0.36,0,0,0,.36.36h5.743a0.36,0.36,0,0,0,.36-0.36C38.732,39.567,38.019,39.007,36.825,38.749ZM33.243,39.89a2.845,2.845,0,0,1,1.083-.438,5.8,5.8,0,0,1,2.347,0,2.845,2.845,0,0,1,1.084.438H33.243Z"/>
</svg>
