<svg xmlns="http://www.w3.org/2000/svg" width="70" height="70" viewBox="0 0 70 70">
  <defs>
    <style>
      .cls-1 {
        fill: #22222b;
      }

      .cls-2 {
        fill: #fff;
        fill-rule: evenodd;
      }
    </style>
  </defs>
  <circle id="BG" class="cls-1" cx="35" cy="35" r="35"/>
  <path id="Forma_1" data-name="Forma 1" class="cls-2" d="M26.443,27.631a0.509,0.509,0,1,1-.508.509A0.509,0.509,0,0,1,26.443,27.631ZM23.8,27.118A6.244,6.244,0,0,1,28.538,25a7.335,7.335,0,0,1,5.31,2.262A9.03,9.03,0,0,1,35,28.7a9.03,9.03,0,0,1,1.152-1.436A7.335,7.335,0,0,1,41.462,25C45.314,25,48,28.231,48,32.073c0,5.19-5.484,9.56-12.667,15.8a0.506,0.506,0,0,1-.665,0C27.467,41.619,22,37.256,22,32.073A7.43,7.43,0,0,1,23.8,27.118ZM35,46.817C41.783,40.931,46.984,36.7,46.984,32.073c0-3.452-2.374-6.055-5.523-6.055A6.257,6.257,0,0,0,36.9,27.953a7.594,7.594,0,0,0-1.435,1.986,0.507,0.507,0,0,1-.463.3h0a0.509,0.509,0,0,1-.463-0.3A7.6,7.6,0,0,0,33.1,27.953a6.257,6.257,0,0,0-4.564-1.935c-3.148,0-5.523,2.6-5.523,6.055C23.016,36.808,28.56,41.229,35,46.817ZM24.667,29.445a0.508,0.508,0,1,1,.9.473,4.73,4.73,0,0,0-.52,2.155c0,1.471.7,3.033,2.2,4.915a0.508,0.508,0,1,1-.793.636c-1.651-2.072-2.42-3.836-2.42-5.551A5.688,5.688,0,0,1,24.667,29.445Z"/>
</svg>
