<svg xmlns="http://www.w3.org/2000/svg" width="70" height="70" viewBox="0 0 70 70">
  <defs>
    <style>
      .cls-1 {
        fill: #22222b;
      }

      .cls-2 {
        fill: #fff;
        fill-rule: evenodd;
      }
    </style>
  </defs>
  <circle id="BG" class="cls-1" cx="35" cy="35" r="35"/>
  <path id="Forma_1" data-name="Forma 1" class="cls-2" d="M23.73,35.262a0.482,0.482,0,0,0-.029-0.093,0.508,0.508,0,0,0-.047-0.085,0.455,0.455,0,0,0-.063-0.075,0.521,0.521,0,0,0-.077-0.063,0.53,0.53,0,0,0-.088-0.045,0.558,0.558,0,0,0-.095-0.028,0.525,0.525,0,0,0-.2,0,0.557,0.557,0,0,0-.095.028,0.53,0.53,0,0,0-.088.045,0.542,0.542,0,0,0-.077.063,0.482,0.482,0,0,0-.063.075,0.508,0.508,0,0,0-.047.085,0.5,0.5,0,0,0-.029.093,0.493,0.493,0,0,0,0,.194,0.493,0.493,0,0,0,.029.093,0.512,0.512,0,0,0,.047.086,0.484,0.484,0,0,0,.063.075,0.516,0.516,0,0,0,.077.062,0.5,0.5,0,0,0,.088.046,0.521,0.521,0,0,0,.095.028,0.5,0.5,0,0,0,.2,0,0.523,0.523,0,0,0,.095-0.028,0.508,0.508,0,0,0,.165-0.108,0.457,0.457,0,0,0,.063-0.075,0.512,0.512,0,0,0,.047-0.086,0.486,0.486,0,0,0,.029-0.093A0.465,0.465,0,0,0,23.73,35.262Zm16.323-7.031a0.525,0.525,0,0,0-.029-0.093,0.5,0.5,0,0,0-.047-0.085,0.489,0.489,0,0,0-.063-0.075,0.494,0.494,0,0,0-.077-0.061,0.546,0.546,0,0,0-.087-0.046,0.5,0.5,0,0,0-.095-0.028,0.509,0.509,0,0,0-.2,0,0.5,0.5,0,0,0-.095.028,0.525,0.525,0,0,0-.088.046,0.495,0.495,0,0,0-.187.222,0.516,0.516,0,0,0-.029.093,0.477,0.477,0,0,0-.01.1,0.472,0.472,0,0,0,.01.1,0.5,0.5,0,0,0,.029.093,0.49,0.49,0,0,0,.047.086,0.5,0.5,0,0,0,.063.076,0.513,0.513,0,0,0,.077.061,0.5,0.5,0,0,0,.088.046,0.552,0.552,0,0,0,.095.028,0.492,0.492,0,0,0,.2,0,0.548,0.548,0,0,0,.095-0.028,0.512,0.512,0,0,0,.164-0.107,0.494,0.494,0,0,0,.11-0.161,0.511,0.511,0,0,0,.029-0.093,0.486,0.486,0,0,0,.01-0.1A0.493,0.493,0,0,0,40.053,28.231Zm-5.069,1.706A5.064,5.064,0,1,0,40.158,35,5.125,5.125,0,0,0,34.984,29.937Zm0,9.134A4.072,4.072,0,1,1,39.144,35,4.121,4.121,0,0,1,34.984,39.07Zm0-7.134A3.064,3.064,0,1,0,38.114,35,3.1,3.1,0,0,0,34.984,31.937Zm0,5.134A2.071,2.071,0,1,1,37.1,35,2.1,2.1,0,0,1,34.984,37.07Zm6.4-7.86a0.515,0.515,0,0,0-.717-0.027,0.488,0.488,0,0,0-.028.7A7.423,7.423,0,0,1,42.689,35a7.605,7.605,0,0,1-5.62,7.259,2.2,2.2,0,0,0-4.17,0,7.5,7.5,0,0,1,0-14.517,2.134,2.134,0,1,0-.065-1.011,8.792,8.792,0,0,0-4.6,2.878,8.375,8.375,0,0,0,.013,10.8,8.79,8.79,0,0,0,4.591,2.862,2.193,2.193,0,0,0,4.3,0A8.791,8.791,0,0,0,41.726,40.4,8.38,8.38,0,0,0,41.383,29.211Zm-6.4-3.248a1.144,1.144,0,1,1-1.169,1.144A1.158,1.158,0,0,1,34.984,25.963Zm0,18.074a1.144,1.144,0,1,1,1.169-1.144A1.158,1.158,0,0,1,34.984,44.037Zm11.945-6.311A11.756,11.756,0,0,0,47.248,35,12.148,12.148,0,0,0,34.984,23a12.315,12.315,0,0,0-10.233,5.392,2.2,2.2,0,0,0-2.573,1.219,2.122,2.122,0,0,0,1.143,2.807,2.215,2.215,0,0,0,.86.174A2.189,2.189,0,0,0,26.189,31.3a2.108,2.108,0,0,0-.543-2.431,11.3,11.3,0,0,1,9.338-4.875A11.143,11.143,0,0,1,46.233,35a10.8,10.8,0,0,1-.273,2.416A2.195,2.195,0,0,0,43.778,38.7a2.109,2.109,0,0,0,.544,2.432,11.333,11.333,0,0,1-20.378-4.01,0.507,0.507,0,0,0-.6-0.392,0.5,0.5,0,0,0-.4.583A12.222,12.222,0,0,0,34.984,47a12.453,12.453,0,0,0,6.064-1.572,12.273,12.273,0,0,0,4.168-3.819,2.236,2.236,0,0,0,.565.073,2.189,2.189,0,0,0,2.009-1.292A2.116,2.116,0,0,0,46.928,37.726Zm-21.671-6.82a1.18,1.18,0,0,1-1.536.6A1.135,1.135,0,0,1,23.11,30a1.182,1.182,0,0,1,1.536-.6A1.135,1.135,0,0,1,25.258,30.906ZM46.858,40a1.18,1.18,0,0,1-1.536.6h0a1.136,1.136,0,0,1-.612-1.5,1.18,1.18,0,0,1,1.536-.6A1.136,1.136,0,0,1,46.858,40Z"/>
</svg>
